<?xml version="1.0" encoding="iso-8859-1"?>
<!-- Generator: Adobe Illustrator 19.0.0, SVG Export Plug-In . SVG Version: 6.00 Build 0)  -->
<svg version="1.1" id="Layer_1" xmlns="http://www.w3.org/2000/svg" xmlns:xlink="http://www.w3.org/1999/xlink" x="0px" y="0px"
	 viewBox="0 0 511.181 511.181" style="enable-background:new 0 0 511.181 511.181;" xml:space="preserve">
<g transform="translate(0 1)">
	<g>
		<g>
			<path d="M102.4,322.857c-9.387,0-17.067,7.68-17.067,17.067c0,9.387,7.68,17.067,17.067,17.067
				c9.387,0,17.067-7.68,17.067-17.067C119.467,330.537,111.787,322.857,102.4,322.857z"/>
			<path d="M409.6,322.857c-9.387,0-17.067,7.68-17.067,17.067c0,9.387,7.68,17.067,17.067,17.067s17.067-7.68,17.067-17.067
				C426.667,330.537,418.987,322.857,409.6,322.857z"/>
			<path d="M511.147,314.324V241.79c0-11.947-9.387-21.333-21.333-21.333h-34.987c-24.747,0-48.64-13.653-62.293-34.987
				l-29.013-47.787c-10.24-17.067-29.867-28.16-50.347-28.16h-174.08c-20.48,0-39.253,11.093-50.347,28.16l-42.667,69.12
				c-5.12,8.533-14.507,13.653-24.747,13.653c-5.973,0-11.093,2.56-15.36,5.973C2.56,230.697,0,235.817,0,241.79v76.8
				c0,16.213,13.653,29.867,29.867,29.867h13.403c4.075,29.155,28.753,51.2,59.131,51.2c30.378,0,55.056-22.045,59.131-51.2h188.938
				c4.075,29.155,28.753,51.2,59.131,51.2s55.056-22.045,59.131-51.2h9.136C496.64,348.457,512,333.097,511.147,314.324z
				 M136.533,194.857v-34.133h110.933v34.133H136.533z M264.533,160.724h91.627l21.333,34.133h-112.96V160.724z M102.4,382.59
				c-23.893,0-42.667-18.773-42.667-42.667c0-23.893,18.773-42.667,42.667-42.667c23.893,0,42.667,18.773,42.667,42.667
				C145.067,363.817,126.293,382.59,102.4,382.59z M409.6,382.59c-23.893,0-42.667-18.773-42.667-42.667
				c0-23.893,18.773-42.667,42.667-42.667c23.893,0,42.667,18.773,42.667,42.667C452.267,363.817,433.493,382.59,409.6,382.59z
				 M477.013,331.39h-8.283c-4.075-29.155-28.753-51.2-59.131-51.2c-0.138,0-0.274,0.009-0.412,0.01
				c-0.148-0.001-0.294-0.01-0.441-0.01c-29.867,0-54.613,22.187-58.88,51.2H161.531c-3.821-27.339-25.761-48.416-53.528-50.936
				c-0.203-0.019-0.409-0.029-0.613-0.046c-0.699-0.056-1.397-0.114-2.103-0.147c-0.957-0.046-1.919-0.072-2.887-0.072
				s-1.93,0.026-2.887,0.072c-0.706,0.033-1.404,0.09-2.103,0.147c-0.204,0.017-0.41,0.027-0.613,0.046
				c-27.767,2.52-49.707,23.597-53.528,50.936H29.867c-6.827,0-12.8-5.973-12.8-12.8v-38.4h25.6c5.12,0,8.533-3.413,8.533-8.533
				s-3.413-8.533-8.533-8.533h-25.6V241.79c0-0.853,0-1.707,1.707-2.56c0.853-0.853,1.707-1.707,3.413-1.707
				c15.36,0,30.72-8.533,38.4-21.333l42.667-69.12c7.68-12.8,21.333-20.48,35.84-20.48h174.08c12.914,0,25.137,6.099,32.485,17.067
				H134.827c-8.533,0-15.36,6.827-15.36,15.36v37.547c0,8.533,6.827,15.36,15.36,15.36h255.962
				c16.629,16.704,39.562,26.453,64.038,26.453h34.987c2.56,0,4.267,1.707,4.267,4.267v20.48h-24.747
				c-5.12,0-8.533,3.413-8.533,8.533s3.413,8.533,8.533,8.533h24.747v34.133C494.08,323.71,486.4,331.39,477.013,331.39z"/>
			<path d="M298.667,237.524H256c-5.12,0-8.533,3.413-8.533,8.533s3.413,8.533,8.533,8.533h34.133v8.533
				c0,5.12,3.413,8.533,8.533,8.533s8.533-3.413,8.533-8.533v-17.067C307.2,240.937,303.787,237.524,298.667,237.524z"/>
		</g>
	</g>
</g>
<g>
</g>
<g>
</g>
<g>
</g>
<g>
</g>
<g>
</g>
<g>
</g>
<g>
</g>
<g>
</g>
<g>
</g>
<g>
</g>
<g>
</g>
<g>
</g>
<g>
</g>
<g>
</g>
<g>
</g>
</svg>
