<?xml version="1.0" encoding="iso-8859-1"?>
<!-- Generator: Adobe Illustrator 19.0.0, SVG Export Plug-In . SVG Version: 6.00 Build 0)  -->
<svg version="1.1" id="Layer_1" xmlns="http://www.w3.org/2000/svg" xmlns:xlink="http://www.w3.org/1999/xlink" x="0px" y="0px"
	 viewBox="0 0 512 512" style="enable-background:new 0 0 512 512;" xml:space="preserve">
<g>
	<g>
		<g>
			<path d="M511.996,145.067c0-51.763-42.104-93.867-93.867-93.867h-42.667V25.6c0-15.078-10.522-25.6-25.6-25.6H161.941
				c-14.592,0-25.6,10.999-25.6,25.6v34.133c0,14.114,11.486,25.6,25.6,25.6h85.521V384H219.49
				c-2.961-5.077-8.397-8.533-14.694-8.533h-51.2v-76.8c0-1.007-0.196-8.533-6.016-17.067c5.82-8.533,6.016-16.06,6.016-17.067
				v-51.2c0-4.71-3.814-8.533-8.533-8.533c-4.71,0-8.533,3.823-8.533,8.533l0.009,51.004c-0.017,0.222-0.341,5.538-6.042,11.23
				c-3.328,3.336-3.328,8.738,0,12.066c5.7,5.7,6.025,11.008,6.033,11.034v76.8h-8.525c-1.007,0-8.533,0.205-17.075,6.016
				c-8.533-5.811-16.068-6.016-17.075-6.016h-42.65c-4.719,0-8.542,3.823-8.542,8.533s3.823,8.533,8.542,8.533l42.453-0.008
				c0.188,0.017,4.079,0.29,8.747,3.866v64.35c0,4.71,3.814,8.533,8.525,8.533c4.719,0,8.542-3.823,8.542-8.533v-64.35
				c4.651-3.576,8.508-3.849,8.533-3.857h76.792v102.4h-76.595c-0.222-0.009-5.538-0.341-11.23-6.033
				c-3.337-3.336-8.738-3.336-12.075,0c-5.692,5.692-11.008,6.025-11.025,6.033c-7.569,0-30.609,0-53.709-23.1
				c-23.1-23.1-23.1-46.131-23.1-53.7v-16.87c0.009-0.222,0.341-5.547,6.042-11.23c1.596-1.604,2.5-3.78,2.5-6.042
				c0-2.261-0.904-4.429-2.5-6.033c-5.7-5.692-6.033-11.008-6.042-11.034v-68.062c0.009-0.188,0.282-4.07,3.866-8.73h81.476
				c4.71,0,8.525-3.814,8.525-8.533c0-4.71-3.814-8.533-8.525-8.533H20.928c-3.584-4.659-3.857-8.516-3.866-8.533V145.067
				c0-42.351,34.458-76.8,76.809-76.8h16.674c4.719,0,8.533-3.823,8.533-8.533s-3.814-8.533-8.533-8.533H93.871
				c-51.763,0-93.867,42.103-93.867,93.867v119.467c0,1.007,0.196,8.533,6.007,17.067c-5.811,8.533-6.007,16.06-6.007,17.067v68.258
				c0,1.007,0.196,8.533,6.007,17.067c-5.811,8.533-6.007,16.068-6.007,17.075v17.067c0,9.318,0,37.666,28.092,65.766
				C56.196,512,84.553,512,93.871,512c0.998,0,8.533-0.205,17.058-6.016c8.542,5.811,16.068,6.016,17.075,6.016h76.792
				c6.161,0,11.614-3.499,14.618-8.533h73.173c2.995,5.035,8.465,8.533,14.609,8.533h76.8c1.007,0,8.533-0.205,17.067-6.016
				c8.533,5.811,16.068,6.016,17.067,6.016c9.318,0,37.666,0,65.766-28.1c28.1-28.1,28.1-56.448,28.1-65.766v-17.067
				c0-1.007-0.196-8.542-6.016-17.075c5.82-8.533,6.016-16.06,6.016-17.067v-68.258c0-1.007-0.205-8.533-6.016-17.067
				c5.811-8.533,6.016-16.06,6.016-17.067V145.067z M290.129,486.4h-68.267v-17.067h68.267V486.4z M290.129,452.267h-68.267V435.2
				h68.267V452.267z M290.129,418.133h-68.267v-17.067h68.267V418.133z M494.929,264.329c-0.008,0.222-0.341,5.547-6.033,11.238
				c-3.328,3.336-3.328,8.738,0,12.066c5.692,5.7,6.025,11.008,6.033,11.034v68.062c-0.008,0.222-0.341,5.538-6.033,11.23
				c-1.596,1.604-2.5,3.772-2.5,6.033c0,2.261,0.905,4.437,2.5,6.042c5.692,5.683,6.025,11.008,6.033,11.034v17.067
				c0,7.569,0,30.601-23.1,53.7s-46.131,23.1-53.495,23.1c-0.196-0.009-4.079-0.282-8.738-3.857v-64.41
				c0-4.71-3.814-8.533-8.533-8.533c-4.71,0-8.533,3.823-8.533,8.533v64.41c-4.642,3.575-8.508,3.849-8.533,3.857h-76.8v-102.4
				l59.725-0.008c0,0,0,0.008,0.008,0.008c0.009,0,0.009-0.008,0.017-0.008h16.853c0.222,0.017,5.538,0.341,11.23,6.042
				c3.337,3.328,8.738,3.328,12.066,0c5.7-5.7,11.025-6.025,11.042-6.033h42.658c4.719,0,8.533-3.823,8.533-8.533
				s-3.814-8.533-8.533-8.533h-42.658c-0.998,0-8.542,0.205-17.075,6.016c-8.533-5.811-16.06-6.016-17.067-6.016h-8.533v-76.604
				c0.009-0.188,0.29-4.07,3.866-8.73h81.468c4.719,0,8.533-3.823,8.533-8.533s-3.814-8.533-8.533-8.533h-81.468
				c-3.575-4.659-3.857-8.516-3.866-8.533v-51.2c0-4.71-3.814-8.533-8.533-8.533c-4.71,0-8.533,3.823-8.533,8.533v51.2
				c0,1.007,0.213,8.533,6.025,17.067c-5.811,8.533-6.025,16.06-6.025,17.067v76.8h-51.2c-6.281,0-11.733,3.456-14.686,8.533
				h-27.981v-42.667h8.533c4.719,0,8.533-3.823,8.533-8.533c0-4.71-3.814-8.533-8.533-8.533h-8.533v-34.133h8.533
				c4.719,0,8.533-3.823,8.533-8.533s-3.814-8.533-8.533-8.533h-8.533v-34.133h8.533c4.719,0,8.533-3.823,8.533-8.533
				s-3.814-8.533-8.533-8.533h-8.533v-34.133h8.533c4.719,0,8.533-3.823,8.533-8.533s-3.814-8.533-8.533-8.533h-8.533v-34.133h8.533
				c4.719,0,8.533-3.823,8.533-8.533s-3.814-8.533-8.533-8.533h-8.533V85.333h68.267c4.719,0,8.533-3.823,8.533-8.533
				s-3.814-8.533-8.533-8.533H161.941c-4.702,0-8.533-3.831-8.533-8.533V25.6c0-5.265,3.268-8.533,8.533-8.533h187.921
				c5.658,0,8.533,2.867,8.533,8.533v34.133c0,4.71,3.823,8.533,8.533,8.533h51.2c42.351,0,76.8,34.449,76.8,76.8V264.329z"/>
			<path d="M332.796,34.133H179.008c-4.71,0-8.533,3.823-8.533,8.533c0,4.71,3.823,8.533,8.533,8.533h153.788
				c4.719,0,8.533-3.823,8.533-8.533C341.329,37.956,337.515,34.133,332.796,34.133z"/>
		</g>
	</g>
</g>
<g>
</g>
<g>
</g>
<g>
</g>
<g>
</g>
<g>
</g>
<g>
</g>
<g>
</g>
<g>
</g>
<g>
</g>
<g>
</g>
<g>
</g>
<g>
</g>
<g>
</g>
<g>
</g>
<g>
</g>
</svg>
