<?xml version="1.0" encoding="iso-8859-1"?>
<!-- Generator: Adobe Illustrator 18.0.0, SVG Export Plug-In . SVG Version: 6.00 Build 0)  -->
<!DOCTYPE svg PUBLIC "-//W3C//DTD SVG 1.1//EN" "http://www.w3.org/Graphics/SVG/1.1/DTD/svg11.dtd">
<svg version="1.1" id="Capa_1" xmlns="http://www.w3.org/2000/svg" xmlns:xlink="http://www.w3.org/1999/xlink" x="0px" y="0px"
	 viewBox="0 0 56.823 56.823" style="enable-background:new 0 0 56.823 56.823;" xml:space="preserve">
<g>
	<path d="M36.272,25.308c0.106,0.036,0.215,0.053,0.321,0.053c0.417,0,0.806-0.262,0.947-0.679c0.313-0.918,1.314-1.411,2.232-1.1
		c1.962,0.664,4.103-0.389,4.768-2.352c0.178-0.522-0.102-1.091-0.625-1.269c-0.525-0.177-1.091,0.103-1.269,0.626
		c-0.312,0.919-1.313,1.412-2.232,1.1c-1.959-0.661-4.102,0.39-4.768,2.352C35.469,24.561,35.749,25.13,36.272,25.308z"/>
	<path d="M38.638,18.34c0.106,0.036,0.215,0.053,0.321,0.053c0.417,0,0.806-0.262,0.947-0.679c0.151-0.445,0.466-0.805,0.888-1.013
		s0.899-0.238,1.344-0.087c1.962,0.664,4.102-0.389,4.768-2.353c0.178-0.522-0.103-1.091-0.625-1.269
		c-0.523-0.18-1.091,0.103-1.268,0.626c-0.312,0.92-1.311,1.413-2.232,1.101c-0.952-0.323-1.971-0.257-2.871,0.188
		c-0.9,0.444-1.574,1.213-1.897,2.164C37.834,17.594,38.115,18.162,38.638,18.34z"/>
	<path d="M41.002,11.372c0.107,0.036,0.215,0.053,0.322,0.053c0.417,0,0.806-0.262,0.947-0.679c0.23-0.678,0.971-1.043,1.648-0.813
		c0.835,0.283,1.73,0.225,2.521-0.164c0.79-0.39,1.381-1.064,1.665-1.899c0.178-0.522-0.102-1.091-0.625-1.269
		c-0.525-0.179-1.091,0.103-1.269,0.626c-0.112,0.329-0.345,0.595-0.656,0.748c-0.311,0.153-0.663,0.176-0.993,0.063
		c-1.722-0.581-3.601,0.343-4.185,2.064C40.2,10.626,40.479,11.194,41.002,11.372z"/>
	<path d="M48.246,25.234c-0.174-0.119-0.37-0.187-0.57-0.213c1.987-6.457,3.077-12.783,3.233-18.808
		c0.049-1.895-0.877-4.425-2.744-5.596c-0.896-0.563-2.364-1.027-4.27-0.046c-2.987,1.541-5.123,6.074-6.839,9.718
		c-0.099,0.21-0.196,0.415-0.292,0.618c-0.379-1.743-1.531-3.234-3.169-4.012c-0.386-1.856-1.858-3.31-3.708-3.687
		c-0.02-0.104-0.045-0.206-0.076-0.309c-0.381-1.302-1.53-2.282-2.859-2.44c-0.749-0.089-1.491,0.066-2.125,0.437
		c-0.54-0.301-1.146-0.461-1.768-0.461c-1.739,0-3.2,1.213-3.581,2.836c-1.901,0.518-3.295,2.263-3.31,4.291
		c-2.169,0.56-3.749,2.52-3.749,4.851c0,0.618,0.116,1.23,0.339,1.807c-0.563,0.695-0.875,1.565-0.875,2.478
		c0,0.548,0.113,1.076,0.326,1.564c-0.999-1.09-2.405-1.981-3.984-1.923c-0.552,0.018-0.986,0.479-0.969,1.031
		c0.017,0.541,0.461,0.969,0.999,0.969c0.034,0.001,0.065-0.002,0.097-0.002c0.937,0,1.808,0.62,2.442,1.34
		c-1.586,0.457-3.498,1.201-4.39,2.883c-0.537,1.015-0.6,2.26-0.242,3.686c-0.173,0.289-0.268,0.625-0.25,0.983l1.702,24.187
		c0.155,3.033,2.655,5.408,5.691,5.408h28.071c3.036,0,5.536-2.375,5.69-5.39l1.745-25.028c0-0.006,0.001-0.012,0.001-0.018
		C48.84,25.927,48.627,25.496,48.246,25.234z M37.58,13.767c0.396-0.739,0.828-1.655,1.285-2.626
		c1.503-3.192,3.563-7.563,5.946-8.793C45.681,1.9,46.43,1.891,47.102,2.31c1.159,0.728,1.841,2.565,1.808,3.851
		c-0.153,5.912-1.233,12.134-3.211,18.494c-0.065,0.209-0.209,0.631-0.414,1.21l-1.704,0.757c-0.037,0.017-0.073,0.035-0.108,0.057
		c-0.492,0.295-1.044,0.441-1.596,0.447c-0.552-0.006-1.103-0.152-1.595-0.447l-0.713-0.428c-0.82-0.492-1.739-0.738-2.658-0.738
		c-0.011,0-0.022,0.002-0.034,0.002c-0.93-0.006-1.862,0.237-2.692,0.736l-0.712,0.428c-0.397,0.238-0.836,0.354-1.28,0.404
		c0.025-0.087,0.054-0.172,0.08-0.258c0.274-0.931,0.568-1.849,0.876-2.76c0.117-0.346,0.239-0.69,0.361-1.033
		c0.257-0.723,0.526-1.437,0.804-2.146c0.124-0.317,0.245-0.637,0.373-0.951C35.559,17.808,36.521,15.745,37.58,13.767z
		 M24.832,16.139c0.117-0.15,0.231-0.296,0.339-0.438c0-0.002,0.001-0.003,0.002-0.004c0.079-0.105,0.148-0.214,0.206-0.323
		c0.246-0.463,0.304-0.983,0.19-1.491l4.174-0.913c0.028,0.128,0.058,0.255,0.106,0.373c0.187,0.458,0.521,0.839,0.986,1.105
		c0.152,0.084,0.311,0.168,0.475,0.255c0.135,0.071,0.27,0.145,0.406,0.219c0.065,0.035,0.131,0.07,0.196,0.106
		c0.119,0.067,0.234,0.141,0.35,0.214c0.099,0.061,0.197,0.124,0.293,0.191c0.111,0.077,0.217,0.162,0.323,0.248
		c0.093,0.076,0.182,0.159,0.27,0.244c0.095,0.093,0.189,0.188,0.276,0.292c0.154,0.184,0.302,0.375,0.423,0.604
		c-0.424,0.936-0.823,1.891-1.209,2.854c-0.06,0.149-0.124,0.294-0.183,0.443c-1.096,0.278-2.155,0.798-3.463,1.729
		c-1.648,1.171-2.875,1.482-4.897,1.189l-0.607-2.779C23.076,18.378,23.969,17.24,24.832,16.139z M29.791,10.066
		c0.026-0.005,0.052-0.008,0.078-0.008c0.189,0,0.366,0.135,0.407,0.325c0.032,0.144-0.022,0.257-0.058,0.312
		c-0.035,0.054-0.114,0.149-0.257,0.18l-5.524,1.209c-0.22,0.048-0.444-0.098-0.492-0.316c-0.048-0.219,0.097-0.444,0.316-0.492
		l2.935-0.642L29.791,10.066z M26.559,25.533c-0.076,0.005-0.153,0.007-0.229,0.015c-0.545,0.055-1.083,0.193-1.594,0.423
		l-0.191-0.875c0.288,0.024,0.575,0.048,0.844,0.048c1.744,0,3.148-0.519,4.762-1.667c0.508-0.362,0.958-0.636,1.386-0.863
		c-0.092,0.261-0.183,0.521-0.272,0.783c-0.064,0.188-0.133,0.373-0.195,0.562c-0.294,0.89-0.574,1.787-0.835,2.692l-0.665-0.398
		c-0.82-0.492-1.739-0.738-2.658-0.738c-0.012,0-0.025,0.002-0.037,0.002C26.769,25.515,26.664,25.527,26.559,25.533z
		 M14.598,15.192l0.655-0.54l-0.425-0.733c-0.266-0.46-0.407-0.98-0.407-1.506c0-1.62,1.269-2.941,2.889-3.009l1.214-0.051
		l-0.283-1.182c-0.048-0.198-0.072-0.393-0.072-0.578c0-1.288,1.006-2.373,2.29-2.471l0.924-0.07l0-0.995
		c0.029-0.899,0.77-1.622,1.677-1.622c0.522,0,0.896,0.238,1.117,0.438l0.701,0.633l0.672-0.664
		c0.308-0.304,0.731-0.446,1.167-0.396c0.536,0.063,1.02,0.481,1.176,1.018c0.053,0.18,0.068,0.354,0.047,0.531l-0.117,1.117h1.126
		c1.437,0,2.639,1.123,2.738,2.557l0.045,0.657l0.621,0.218c1.563,0.549,2.591,2.028,2.556,3.683
		c-0.015,0.707-0.243,1.388-0.656,1.985c-0.669-0.568-1.39-0.951-1.996-1.27c-0.157-0.083-0.309-0.163-0.462-0.248
		c-0.043-0.024-0.095-0.066-0.113-0.171c-0.024-0.144,0.03-0.317,0.139-0.444c0.436-0.506,0.611-1.196,0.47-1.847l-0.121-0.551
		c-0.121-0.556-0.453-1.031-0.933-1.339c-0.479-0.307-1.049-0.41-1.604-0.288l-0.268,0.059c-0.003,0.001-0.006,0-0.009,0.001
		l-2.935,0.642l-2.864,0.625c-0.555,0.121-1.03,0.452-1.338,0.933c-0.308,0.479-0.41,1.05-0.289,1.605l0.06,0.272
		c0,0.001,0,0.002,0,0.003c0,0.001,0.001,0.002,0.001,0.004l0.059,0.271c0.145,0.666,0.608,1.227,1.237,1.497
		c0.156,0.067,0.286,0.194,0.331,0.323c0.026,0.074,0.011,0.112-0.047,0.208c0,0,0,0,0,0.001c-0.099,0.133-0.206,0.268-0.315,0.407
		c-0.11,0.14-0.224,0.287-0.34,0.439c-0.039,0.051-0.076,0.104-0.115,0.156c-0.083,0.113-0.166,0.228-0.248,0.348
		c-0.045,0.065-0.088,0.132-0.132,0.2c-0.076,0.117-0.149,0.238-0.221,0.362c-0.042,0.072-0.083,0.143-0.123,0.218
		c-0.075,0.14-0.143,0.287-0.21,0.437c-0.029,0.064-0.06,0.125-0.086,0.192c-0.088,0.218-0.166,0.446-0.228,0.686
		c-0.01,0.038-0.014,0.079-0.023,0.118c-0.048,0.204-0.087,0.415-0.112,0.635c-0.01,0.088-0.012,0.18-0.018,0.271
		c-0.008,0.118-0.023,0.23-0.023,0.353c-0.004-0.005-0.008-0.01-0.012-0.015c-0.014-0.018-0.028-0.034-0.041-0.052
		c-0.174-0.229-0.348-0.44-0.523-0.64c-0.055-0.063-0.111-0.124-0.167-0.184c-0.147-0.159-0.294-0.308-0.442-0.448
		c-0.048-0.045-0.096-0.094-0.145-0.138c-0.187-0.167-0.375-0.32-0.564-0.456c-0.053-0.038-0.107-0.07-0.16-0.106
		c-0.142-0.095-0.284-0.183-0.428-0.261c-0.07-0.038-0.139-0.075-0.21-0.109c-0.149-0.073-0.299-0.135-0.45-0.189
		c-0.05-0.018-0.1-0.042-0.15-0.058c-0.164-0.052-0.329-0.094-0.495-0.125c-0.019-0.004-0.038-0.002-0.057-0.005
		c-0.034-0.006-0.067-0.019-0.101-0.024c-0.116-0.017-0.226-0.01-0.34-0.018c-0.08-0.005-0.159-0.022-0.239-0.022
		c-0.024,0-0.049,0.006-0.074,0.006c-0.155,0.002-0.305,0.02-0.456,0.039c-0.075,0.01-0.15,0.016-0.225,0.03
		c-0.197,0.036-0.388,0.086-0.577,0.146c-0.029,0.009-0.057,0.016-0.086,0.026c-0.498,0.169-0.97,0.408-1.412,0.697
		c-0.091-0.225-0.139-0.467-0.139-0.716C13.885,16.113,14.145,15.564,14.598,15.192z M8.173,23.495
		c0.423-0.797,1.45-1.405,3.233-1.915c0.834-0.238,1.608-0.683,2.236-1.283c0.285-0.273,0.552-0.504,0.81-0.714
		c0.806-0.655,1.501-1.011,2.13-1.092c0.014-0.002,0.028-0.004,0.042-0.005c0.199-0.022,0.392-0.016,0.579,0.017
		c0.049,0.009,0.099,0.026,0.149,0.039c0.093,0.023,0.185,0.046,0.278,0.083c0.06,0.023,0.12,0.058,0.181,0.086
		c0.087,0.042,0.173,0.08,0.26,0.133c0.068,0.041,0.136,0.094,0.204,0.141c0.081,0.057,0.162,0.109,0.244,0.175
		c0.076,0.061,0.152,0.135,0.228,0.204c0.076,0.069,0.152,0.132,0.228,0.209c0.084,0.085,0.169,0.184,0.254,0.279
		c0.069,0.077,0.138,0.148,0.208,0.231c0.095,0.114,0.191,0.244,0.287,0.37c0.061,0.08,0.121,0.152,0.182,0.237
		c0.109,0.152,0.219,0.321,0.329,0.489c0.048,0.074,0.097,0.14,0.145,0.216c0.159,0.251,0.319,0.518,0.48,0.802
		c0.736,1.299,0.98,3.218,0.66,4.889c-0.053-0.005-0.105-0.013-0.158-0.021c-0.381-0.065-0.748-0.187-1.082-0.387l-0.713-0.428
		c-0.82-0.492-1.739-0.738-2.658-0.738c-0.011,0-0.022,0.002-0.034,0.002c-0.93-0.006-1.862,0.237-2.692,0.736l-0.347,0.208
		c-0.605,0.363-1.283,0.546-1.961,0.552c-0.679-0.006-1.356-0.188-1.961-0.552l-1.345-0.808c0,0-0.001,0-0.001-0.001
		c-0.177-0.105-0.368-0.177-0.564-0.213C7.847,24.645,7.903,24.005,8.173,23.495z M45.074,51.313
		c-0.101,1.968-1.724,3.51-3.694,3.51H13.308c-1.971,0-3.593-1.542-3.695-3.529L7.949,27.652l0.87,0.522
		c0.943,0.566,2.002,0.844,3.058,0.838c1.057,0.006,2.115-0.272,3.058-0.838l0.347-0.208c0.492-0.296,1.043-0.442,1.595-0.448
		c0.552,0.006,1.103,0.152,1.596,0.448l0.713,0.428c0.902,0.541,1.924,0.773,2.934,0.718c0.09-0.004,0.18-0.004,0.271-0.012
		c0.011-0.001,0.021-0.007,0.033-0.008c0.683-0.077,1.353-0.292,1.971-0.644c0.058-0.021,0.12-0.022,0.174-0.054l0.713-0.428
		c0.492-0.296,1.043-0.442,1.595-0.448c0.552,0.006,1.103,0.152,1.596,0.448l0.713,0.428c0.757,0.453,1.599,0.688,2.446,0.723
		c0.017,0.001,0.035,0.003,0.052,0.003c0.292,0.009,0.584,0,0.874-0.041c0.166-0.021,0.327-0.063,0.49-0.1
		c0.079-0.019,0.158-0.036,0.236-0.059c0.444-0.123,0.879-0.284,1.284-0.527h0l0.713-0.428c0.492-0.296,1.043-0.442,1.595-0.448
		c0.552,0.006,1.103,0.152,1.596,0.448l0.713,0.428c0.826,0.495,1.753,0.738,2.679,0.734c0.015,0,0.031,0.003,0.046,0.003
		c0.898,0,1.797-0.234,2.603-0.704l1.962-0.872c0.042-0.019,0.072-0.055,0.111-0.079l0.153-0.068L45.074,51.313z"/>
	<path d="M11.911,43.004h7c0.552,0,1-0.447,1-1s-0.448-1-1-1h-7c-0.552,0-1,0.447-1,1S11.359,43.004,11.911,43.004z"/>
	<path d="M11.911,47.004h9c0.552,0,1-0.447,1-1s-0.448-1-1-1h-9c-0.552,0-1,0.447-1,1S11.359,47.004,11.911,47.004z"/>
	<path d="M22.911,49.004h-11c-0.552,0-1,0.447-1,1s0.448,1,1,1h11c0.552,0,1-0.447,1-1S23.463,49.004,22.911,49.004z"/>
	<path d="M28.911,49.004h-2c-0.552,0-1,0.447-1,1s0.448,1,1,1h2c0.552,0,1-0.447,1-1S29.463,49.004,28.911,49.004z"/>
</g>
<g>
</g>
<g>
</g>
<g>
</g>
<g>
</g>
<g>
</g>
<g>
</g>
<g>
</g>
<g>
</g>
<g>
</g>
<g>
</g>
<g>
</g>
<g>
</g>
<g>
</g>
<g>
</g>
<g>
</g>
</svg>
