<?xml version="1.0" encoding="iso-8859-1"?>
<!-- Generator: Adobe Illustrator 19.0.0, SVG Export Plug-In . SVG Version: 6.00 Build 0)  -->
<svg version="1.1" id="Layer_1" xmlns="http://www.w3.org/2000/svg" xmlns:xlink="http://www.w3.org/1999/xlink" x="0px" y="0px"
	 viewBox="0 0 512 512" style="enable-background:new 0 0 512 512;" xml:space="preserve">
<g>
	<g>
		<g>
			<path d="M128,392.533c14.114,0,25.6-11.486,25.6-25.6v-25.6h25.6c14.114,0,25.6-11.486,25.6-25.6s-11.486-25.6-25.6-25.6h-25.6
				v-25.6c0-14.114-11.486-25.6-25.6-25.6s-25.6,11.486-25.6,25.6v25.6H76.8c-14.114,0-25.6,11.486-25.6,25.6s11.486,25.6,25.6,25.6
				h25.6v25.6C102.4,381.047,113.886,392.533,128,392.533z M76.8,324.267c-4.71,0-8.533-3.831-8.533-8.533S72.09,307.2,76.8,307.2
				h34.133c4.719,0,8.533-3.823,8.533-8.533v-34.133c0-4.702,3.823-8.533,8.533-8.533s8.533,3.831,8.533,8.533v34.133
				c0,4.71,3.814,8.533,8.533,8.533H179.2c4.71,0,8.533,3.831,8.533,8.533s-3.823,8.533-8.533,8.533h-34.133
				c-4.719,0-8.533,3.823-8.533,8.533v34.133c0,4.702-3.823,8.533-8.533,8.533s-8.533-3.831-8.533-8.533V332.8
				c0-4.71-3.814-8.533-8.533-8.533H76.8z"/>
			<path d="M384,187.733h-59.733v-76.8c0-23.526-19.14-42.667-42.667-42.667c-23.526,0-42.667,19.14-42.667,42.667
				c0,14.114-11.486,25.6-25.6,25.6c-14.114,0-25.6-11.486-25.6-25.6V8.533c0-4.71-3.814-8.533-8.533-8.533
				s-8.533,3.823-8.533,8.533v102.4c0,23.526,19.14,42.667,42.667,42.667c23.526,0,42.667-19.14,42.667-42.667
				c0-14.114,11.486-25.6,25.6-25.6s25.6,11.486,25.6,25.6v85.333c0,4.71,3.814,8.533,8.533,8.533H384
				c60.134,0,110.933,50.799,110.933,110.933v136.986c0,27.179-25.225,42.214-42.667,42.214c-24.772,0-39.467-16.068-58.069-36.412
				c-26.88-29.397-60.339-65.988-138.197-65.988c-77.739,0-111.078,36.514-137.856,65.852
				c-18.637,20.42-33.357,36.548-58.411,36.548c-17.818,0-42.667-16.23-42.667-42.667V315.733
				C17.067,255.599,67.866,204.8,128,204.8h153.6c4.719,0,8.533-3.823,8.533-8.533s-3.814-8.533-8.533-8.533H128
				c-69.385,0-128,58.615-128,128v136.533C0,487.467,31.479,512,59.733,512c32.572,0,51.251-20.454,71.014-42.103
				C156.553,441.634,185.788,409.6,256,409.6c70.332,0,99.703,32.111,125.602,60.442C401.331,491.614,419.977,512,452.267,512
				C480.521,512,512,487.654,512,452.719V315.733C512,246.349,453.385,187.733,384,187.733z"/>
			<path d="M435.2,341.333c14.114,0,25.6-11.486,25.6-25.6s-11.486-25.6-25.6-25.6s-25.6,11.486-25.6,25.6
				S421.086,341.333,435.2,341.333z M435.2,307.2c4.71,0,8.533,3.831,8.533,8.533s-3.823,8.533-8.533,8.533
				s-8.533-3.831-8.533-8.533S430.49,307.2,435.2,307.2z"/>
			<path d="M384,238.933c-14.114,0-25.6,11.486-25.6,25.6s11.486,25.6,25.6,25.6s25.6-11.486,25.6-25.6S398.114,238.933,384,238.933
				z M384,273.067c-4.71,0-8.533-3.831-8.533-8.533c0-4.702,3.823-8.533,8.533-8.533s8.533,3.831,8.533,8.533
				C392.533,269.235,388.71,273.067,384,273.067z"/>
			<path d="M332.8,290.133c-14.114,0-25.6,11.486-25.6,25.6s11.486,25.6,25.6,25.6c14.114,0,25.6-11.486,25.6-25.6
				S346.914,290.133,332.8,290.133z M332.8,324.267c-4.71,0-8.533-3.831-8.533-8.533s3.823-8.533,8.533-8.533
				c4.71,0,8.533,3.831,8.533,8.533S337.51,324.267,332.8,324.267z"/>
			<path d="M384,392.533c14.114,0,25.6-11.486,25.6-25.6s-11.486-25.6-25.6-25.6s-25.6,11.486-25.6,25.6
				S369.886,392.533,384,392.533z M384,358.4c4.71,0,8.533,3.831,8.533,8.533s-3.823,8.533-8.533,8.533s-8.533-3.831-8.533-8.533
				S379.29,358.4,384,358.4z"/>
		</g>
	</g>
</g>
<g>
</g>
<g>
</g>
<g>
</g>
<g>
</g>
<g>
</g>
<g>
</g>
<g>
</g>
<g>
</g>
<g>
</g>
<g>
</g>
<g>
</g>
<g>
</g>
<g>
</g>
<g>
</g>
<g>
</g>
</svg>
