<?xml version="1.0" encoding="iso-8859-1"?>
<!-- Generator: Adobe Illustrator 18.0.0, SVG Export Plug-In . SVG Version: 6.00 Build 0)  -->
<!DOCTYPE svg PUBLIC "-//W3C//DTD SVG 1.1//EN" "http://www.w3.org/Graphics/SVG/1.1/DTD/svg11.dtd">
<svg version="1.1" id="Capa_1" xmlns="http://www.w3.org/2000/svg" xmlns:xlink="http://www.w3.org/1999/xlink" x="0px" y="0px"
	 viewBox="0 0 57.001 57.001" style="enable-background:new 0 0 57.001 57.001;" xml:space="preserve">
<path d="M52.039,14.001H38.195c3.598-1.722,5.892-3.755,6.829-6.074c0.963-2.381,0.301-4.468-0.425-5.799
	c-0.534-0.982-1.479-1.672-2.593-1.893c-5.179-1.026-9.753,1.31-13.305,6.762c-2.664-4.048-6.963-8.012-13.264-6.762
	c-1.113,0.221-2.059,0.911-2.593,1.892c-1.025,1.881-1.177,3.94-0.426,5.798c0.937,2.32,3.231,4.352,6.83,6.075H4.961
	c-1.357,0-2.461,1.104-2.461,2.461v8.078c0,1.357,1.104,2.461,2.461,2.461H5.5v30h20h7h19v-30h0.539
	c1.357,0,2.461-1.104,2.461-2.461v-8.078C54.5,15.105,53.397,14.001,52.039,14.001z M41.617,2.198
	c0.521,0.104,0.98,0.435,1.227,0.887c0.519,0.953,0.996,2.437,0.327,4.093c-1.062,2.625-4.685,4.983-10.483,6.823H32.5h-0.437
	c-0.264-0.827-0.968-2.847-2.192-5.111C32.137,5.099,35.947,1.072,41.617,2.198z M29.004,26.463L24.5,33.559v-3.558h-3.803
	l5.092-5.843c0.088-0.099,0.214-0.157,0.346-0.157h5.73c0.131,0,0.257,0.057,0.344,0.155l5.093,5.845h-3.691v3.605L29.004,26.463z
	 M30.5,22.001h-3v-6h3V22.001z M14.273,7.177c-0.67-1.657-0.191-3.14,0.327-4.092c0.246-0.452,0.705-0.784,1.227-0.887
	c8.606-1.714,12.983,8.587,14.124,11.803H25.5h-0.744C18.956,12.16,15.333,9.802,14.273,7.177z M4.961,25.001
	c-0.254,0-0.461-0.207-0.461-0.461v-8.078c0-0.254,0.207-0.461,0.461-0.461h19.09H25.5v6h-0.484l-0.732,0.841
	c-0.001,0.001-0.003,0.002-0.004,0.004l-1.74,1.998c-0.088,0.1-0.214,0.158-0.348,0.158H5.5H4.961z M7.5,55.001v-28H20.66l-4.356,5
	H22.5v8.442l3-4.727v19.285H7.5z M27.5,55.001V32.565l1.518-2.391l1.482,2.298v22.529H27.5z M49.5,55.001h-17V35.572l3.111,4.823
	v-8.395h6.086l-4.356-5H49.5V55.001z M52.5,24.54c0,0.254-0.207,0.461-0.461,0.461H51.5H35.809c-0.134,0-0.26-0.058-0.348-0.158
	l-1.741-2c-0.002-0.002-0.004-0.003-0.005-0.005l-0.73-0.838H32.5v-6h0.494h19.045c0.254,0,0.461,0.207,0.461,0.461V24.54z"/>
<g>
</g>
<g>
</g>
<g>
</g>
<g>
</g>
<g>
</g>
<g>
</g>
<g>
</g>
<g>
</g>
<g>
</g>
<g>
</g>
<g>
</g>
<g>
</g>
<g>
</g>
<g>
</g>
<g>
</g>
</svg>
