<?xml version='1.0' encoding='iso-8859-1'?>
<svg version="1.1" xmlns="http://www.w3.org/2000/svg" viewBox="0 0 352.121 352.121" xmlns:xlink="http://www.w3.org/1999/xlink" enable-background="new 0 0 352.121 352.121">
  <g>
    <path d="m275.123,197.582c-42.457,0-76.999,34.542-76.999,76.999 0,42.458 34.542,76.999 76.999,76.999s76.999-34.542 76.999-76.999c-0.001-42.458-34.542-76.999-76.999-76.999zm0,138.997c-34.186,0-61.999-27.813-61.999-61.999 0-34.186 27.813-61.999 61.999-61.999s61.999,27.813 61.999,61.999c-0.001,34.187-27.813,61.999-61.999,61.999z"/>
    <path d="m298.564,236.554c-3.525-2.173-8.147-1.078-10.32,2.449l-39.011,63.284c-2.174,3.526-1.078,8.146 2.449,10.32 1.227,0.756 2.585,1.117 3.928,1.117 2.516,0 4.975-1.266 6.392-3.565l39.011-63.284c2.174-3.527 1.077-8.147-2.449-10.321z"/>
    <path d="m60.975,298.694l-1.145-.716c-6.218-3.892-10.551-9.985-12.202-17.157-1.65-7.173-0.416-14.548 3.476-20.767 2.198-3.511 1.133-8.139-2.378-10.336-3.513-2.199-8.14-1.132-10.336,2.378-6.018,9.615-7.928,21.011-5.379,32.088 2.549,11.077 9.248,20.491 18.862,26.509l1.146,.717c1.237,0.774 2.612,1.143 3.971,1.143 2.499,0 4.942-1.248 6.365-3.522 2.197-3.512 1.132-8.14-2.38-10.337z"/>
    <path d="m214.02,51.63l1.145,.716c12.861,8.05 16.776,25.063 8.726,37.924-2.198,3.511-1.133,8.139 2.378,10.336 1.237,0.774 2.613,1.144 3.972,1.144 2.499,0 4.941-1.248 6.365-3.522 12.438-19.872 6.39-46.158-13.483-58.597l-1.146-.717c-3.513-2.197-8.139-1.132-10.336,2.379s-1.132,8.14 2.379,10.337z"/>
    <path d="m201.137,214.993c0-0.001 0.001-0.001 0.001-0.002l62.495-99.848c10.544-16.846 13.896-36.789 9.44-56.157-4.456-19.367-16.188-35.84-33.032-46.383l-1.147-.718c-11.856-7.421-25.484-11.344-39.41-11.344-25.838,0-49.438,13.061-63.13,34.937l-124.992,199.7c-10.544,16.846-13.896,36.789-9.44,56.156 4.456,19.367 16.188,35.84 33.032,46.383l1.147,.718c11.856,7.421 25.484,11.343 39.41,11.343 25.838,0 49.438-13.061 63.13-34.937l62.495-99.848c0.001,0.001 0.001,0.001 0.001,5.68434e-14zm-52.068-171.556c10.933-17.467 29.78-27.895 50.416-27.895 11.108,0 21.983,3.133 31.45,9.058l1.147,.718c13.45,8.418 22.816,21.569 26.374,37.032 3.558,15.463 0.881,31.385-7.537,44.835l-58.517,93.493-101.85-63.748 58.517-93.493zm-23.143,263.448c-10.933,17.467-29.78,27.895-50.416,27.895-11.108,0-21.983-3.132-31.45-9.057l-1.147-.718c-13.45-8.418-22.816-21.57-26.374-37.032-3.558-15.463-0.881-31.385 7.537-44.835l58.517-93.493 101.85,63.748-58.517,93.492z"/>
  </g>
</svg>
