<?xml version="1.0" encoding="iso-8859-1"?>
<!-- Generator: Adobe Illustrator 19.0.0, SVG Export Plug-In . SVG Version: 6.00 Build 0)  -->
<svg version="1.1" id="Layer_1" xmlns="http://www.w3.org/2000/svg" xmlns:xlink="http://www.w3.org/1999/xlink" x="0px" y="0px"
	 viewBox="0 0 512.64 512.64" style="enable-background:new 0 0 512.64 512.64;" xml:space="preserve">
<g transform="translate(0 1)">
	<g>
		<g>
			<path d="M128,334.147c18.773,0,34.133-15.36,34.133-34.133c0-18.773-15.36-34.133-34.133-34.133
				c-18.773,0-34.133,15.36-34.133,34.133C93.867,318.787,109.227,334.147,128,334.147z M128,282.947
				c9.387,0,17.067,7.68,17.067,17.067S137.387,317.08,128,317.08s-17.067-7.68-17.067-17.067S118.613,282.947,128,282.947z"/>
			<path d="M512,290.627c0-59.235-43.694-108.753-100.442-117.934l-14.335-68.946h12.649c1.182,17.13,6.928,34.257,29.595,40.107
				c4.267,0.853,9.387,1.707,13.653,1.707c6.827,0,14.507-1.707,22.187-3.413l31.573-12.8c5.12-1.707,6.827-5.973,5.12-11.093
				c-1.707-5.12-6.827-6.827-11.093-5.12l-31.573,12.8c-8.533,3.413-17.067,3.413-24.747,1.707
				c-11.577-2.894-16.404-9.474-17.604-23.893h8.218c9.387,0,17.067-7.68,17.067-17.067V69.613c0-9.387-7.68-17.067-17.067-17.067
				H324.267c-9.387,0-17.067,7.68-17.067,17.067V86.68c0,9.387,7.68,17.067,17.067,17.067h10.079l16.915,74.708
				c-29.734,10.9-54.204,33.43-67.502,63.492l-141.347-8.922L112.608,112.28h13.686c15.36,0,27.307-11.947,27.307-28.16
				c0-12.8-8.533-23.04-20.48-26.453L58.88,40.6c-8.533-1.707-16.213,0-23.04,5.12c-6.827,5.12-10.24,12.8-10.24,21.333v18.773
				c0,14.507,11.947,26.453,26.453,26.453h0.772l4.064,17.067H8.533c-5.12,0-8.533,3.413-8.533,8.533s3.413,8.533,8.533,8.533h8.533
				v8.533c0,5.12,3.413,8.533,8.533,8.533c4.267,0,8.533-3.413,8.533-8.533v-8.533h26.819l23.985,100.739
				c-15.355,12.545-25.204,31.606-25.204,52.861c0,16.215,5.738,31.15,15.273,42.894L37.099,419.48h-2.966
				c-14.507,0-25.6,11.093-25.6,25.6c0,14.507,11.947,25.6,25.6,25.6h435.2c14.507,0,25.6-11.093,25.6-25.6
				c0-14.507-11.947-25.6-25.6-25.6h-4.684l-6.131-28.817C490.693,368.948,512,331.988,512,290.627z M128,368.28
				c5.12,0,10.24-0.853,14.507-1.707l144.724-18.706c20.769,38.377,61.485,63.079,105.303,63.079c2.854,0,5.685-0.11,8.49-0.312
				l1.997,8.846H99.208l26.577-51.257C126.522,368.247,127.257,368.28,128,368.28z M324.267,69.613H435.2V86.68h-48.64h-45.227
				h-17.067V69.613z M351.573,103.747h27.307l14.327,67.422c-0.225-0.001-0.449-0.009-0.674-0.009
				c-8.523,0-16.862,0.906-24.931,2.608L351.573,103.747z M362.854,193.347c0.507,0,1.013,0,1.52,0
				c9.387-2.56,18.773-4.267,28.16-4.267c2.564,0,5.107,0.098,7.625,0.286c1.314,0.126,2.728,0.302,4.322,0.568
				c0.973,0.324,1.945,0.399,2.871,0.23c49.364,7.236,87.582,50.027,87.582,101.316c0,56.32-46.08,102.4-102.4,102.4
				c-35.74,0-68.083-18.672-86.88-48.394l87.733-11.34c23.04,0,41.813-19.627,41.813-42.667c0-23.893-18.773-42.667-41.813-42.667
				l-91.307-5.973C315.204,218.467,337.03,200.972,362.854,193.347z M42.667,85.827V67.053c0-3.413,0.853-5.973,3.413-8.533
				c1.707-0.853,3.413-1.707,5.973-1.707c0.853,0,1.707,0.853,2.56,0.853l74.24,17.067c4.267,0.853,7.68,5.12,7.68,10.24
				c0,5.973-4.267,10.24-10.24,10.24h-24.747H59.733h-7.68C46.933,95.213,42.667,90.947,42.667,85.827z M94.72,112.28l30.72,116.907
				c-8.533,0.853-17.067,2.56-24.747,5.973L70.827,112.28H94.72z M128,248.813c1.707,0,3.413,0,5.973,0L391.68,265.88
				c0.853,0,0.853,0,0.853,0c14.507,0,25.6,11.093,25.6,25.6c0,14.507-11.093,25.6-25.6,25.6h-0.853l-109.705,14.131l-2.935,0.375
				l0.001,0.003l-139.095,17.917c-5.153,1.288-10.186,1.766-15.023,1.563c-0.934-0.454-1.915-0.709-2.897-0.709
				c-11.922-0.852-22.144-5.954-30.667-14.455c-9.045-9.343-14.56-22.13-14.56-35.891C76.8,271.853,99.84,248.813,128,248.813z
				 M88.747,356.333c5.973,4.267,12.8,6.827,19.627,9.387l-28.16,53.76H56.32L88.747,356.333z M477.867,445.08
				c0,5.12-4.267,8.533-8.533,8.533h-435.2c-5.12,0-8.533-3.413-8.533-8.533s4.267-8.533,8.533-8.533h8.533h42.667h328.533h42.667
				h12.8C474.453,436.547,477.867,439.96,477.867,445.08z M446.293,419.48h-25.6l-2.56-11.093c1.396-0.419,2.763-0.839,4.117-1.262
				c6.855-1.797,13.475-4.203,19.803-7.147L446.293,419.48z"/>
		</g>
	</g>
</g>
<g>
</g>
<g>
</g>
<g>
</g>
<g>
</g>
<g>
</g>
<g>
</g>
<g>
</g>
<g>
</g>
<g>
</g>
<g>
</g>
<g>
</g>
<g>
</g>
<g>
</g>
<g>
</g>
<g>
</g>
</svg>
