<?xml version="1.0" encoding="iso-8859-1"?>
<!-- Generator: Adobe Illustrator 19.0.0, SVG Export Plug-In . SVG Version: 6.00 Build 0)  -->
<svg version="1.1" id="Layer_1" xmlns="http://www.w3.org/2000/svg" xmlns:xlink="http://www.w3.org/1999/xlink" x="0px" y="0px"
	 viewBox="0 0 512 512" style="enable-background:new 0 0 512 512;" xml:space="preserve">
<g transform="translate(1 1)">
	<g>
		<g>
			<path d="M374.32,314.733c73.387,0,128-25.6,128-59.733c0-34.133-54.613-59.733-128-59.733h-29.867L331.028,178.2h9.159
				c18.773,0,34.133-15.36,34.133-34.133c0-18.773-15.36-34.133-34.133-34.133h-59.733c-1.01,0-2.023,0.002-3.086,0.055
				l-13.469-17.121h8.021c18.773,0,34.133-15.36,34.133-34.133S290.694,24.6,271.92,24.6h-59.733c-0.721,0-1.369,0.002-1.974,0.021
				L193.414,3.267C191.707,0.707,189.147-1,185.734-1h-40.107c-2.56,0-6.827,2.56-8.533,5.12s-2.56,5.973-1.707,8.533L190,200.387
				c-21.333-5.12-62.293-10.24-89.6,9.387l-53.76-53.76c-1.707-2.56-4.267-3.413-6.827-3.413H17.627
				c-3.413,0-6.827,1.707-8.533,4.267s-1.707,5.973-0.853,9.387L40.667,255L9.094,343.747c-1.707,3.413-0.853,6.827,0.853,9.387
				s5.12,4.267,8.533,4.267h22.187c2.56,0,5.12-0.853,6.827-2.56l53.76-53.76c28.16,19.627,68.267,14.507,89.6,9.387L136.24,498.2
				c-0.853,2.56,0,5.973,1.707,8.533s4.267,4.267,7.68,4.267h40.107c3.413,0,5.973-1.707,7.68-4.267l16.829-21.393
				c0.869,0.056,1.763,0.059,2.798,0.059h59.733c18.773,0,33.28-15.36,33.28-34.133s-15.36-34.133-34.133-34.133h-8.021
				l13.508-17.171c1.369,0.103,2.635,0.104,3.9,0.104h59.733c18.773,0,34.133-15.36,34.133-34.133S359.814,331.8,341.04,331.8
				h-10.012l13.426-17.067H374.32z M271.92,41.667c9.387,0,17.067,7.68,17.067,17.067S281.307,75.8,271.92,75.8h-21.333
				l-26.453-34.133H271.92z M272.774,434.2c9.387,0,17.067,7.68,17.067,17.067c0,9.387-7.68,17.067-17.067,17.067h-47.787
				L251.44,434.2H272.774z M341.894,348.867c9.387,0,17.067,7.68,17.067,17.067S351.28,383,341.894,383H292.4l27.307-34.133H341.894
				z M340.187,127c9.387,0,17.067,7.68,17.067,17.067c0,9.387-7.68,17.067-17.067,17.067H318l-23.893-29.866L290.751,127H340.187z
				 M182.32,493.933h-27.307l55.467-192c0.853-3.413,0-6.827-2.56-9.387c-2.56-1.707-5.973-2.56-9.387-1.707
				c0,0-61.44,20.48-91.307-6.827l-2.56-2.56h-7.68l-58.88,58.88h-10.24l29.867-81.92c0.853-1.707,0.853-4.267,0-6.827
				l-29.867-81.92h10.24l57.173,56.32c3.413,3.413,9.387,3.413,12.8,0c23.893-23.04,74.24-12.8,91.307-6.827
				c3.413,1.707,6.827,0.853,9.387-1.707c2.56-2.56,3.413-5.973,2.56-9.387l-56.32-192h27.307l153.6,196.267h38.4
				c65.707,0,110.933,22.187,110.933,42.667c0,20.48-45.227,42.667-110.933,42.667h-38.4L182.32,493.933z"/>
			<path d="M419.547,278.04c1.707,1.707,3.413,2.56,5.973,2.56c1.707,0,4.267-0.853,5.973-2.56
				c6.827-7.68,11.093-15.36,11.093-23.04c0-7.68-3.413-15.36-11.093-23.04c-3.413-3.413-8.533-3.413-11.947,0
				c-3.413,3.413-3.413,8.533,0,11.947c4.267,4.267,5.973,7.68,5.973,11.093s-1.707,6.827-5.973,11.093
				C416.134,269.507,416.134,274.627,419.547,278.04z"/>
		</g>
	</g>
</g>
<g>
</g>
<g>
</g>
<g>
</g>
<g>
</g>
<g>
</g>
<g>
</g>
<g>
</g>
<g>
</g>
<g>
</g>
<g>
</g>
<g>
</g>
<g>
</g>
<g>
</g>
<g>
</g>
<g>
</g>
</svg>
